<svg xmlns="http://www.w3.org/2000/svg" width="24" height="24" viewBox="0 0 1209 1024" fill="none"><path fill="#000000" fill-rule="evenodd" clip-rule="evenodd" d="M442.182657 811.834289c-15.414458 9.580963-30.422787 19.014242-45.523418 28.281377-23.555507 14.472976-47.037173 29.093636-70.851127 43.160483a112.257869 112.257869 0 0 1-45.117288 14.251452c-31.955003 3.562863-62.968524-20.620299-65.645286-52.667605-1.513755-18.109681-1.218388-36.385506-1.402992-54.587488-0.221525-19.586515 0-39.191491 0-60.033316-3.175194 0-6.055021 0.147683-8.916388 0-21.358716-1.255309-43.142023-0.332288-64.002307-4.264359-68.063602-12.829998-124.515594-69.854264-137.160988-136.976383a216.873121 216.873121 0 0 1-3.359798-39.911448C0 426.583595 0.203065 304.080187 0 181.57678c0-56.507373 20.915666-103.378403 63.946926-139.671606A166.49461 166.49461 0 0 1 168.986768 1.402993C186.450334 0.904561 204.043122 0.923021 221.525149 1.31069c13.642257 0.295367 24.607752 11.463926 25.733838 25.198486 1.107626 13.420732-7.697999 26.139968-20.564918 29.019795a70.481918 70.481918 0 0 1-12.368488 0.849179c-20.011105 0.830719-40.262196 0-59.996394 2.750604C102.732288 66.457545 59.461042 114.842329 56.37815 167.011502a545.690283 545.690283 0 0 0-0.959942 31.087362Q55.381287 372.900667 55.381287 547.628628c0 43.252785 16.614386 78.30914 51.818425 103.969137 21.654083 15.802127 46.409519 22.004831 72.826392 22.152514 26.749162 0.221525 53.535244 0 80.284406 0h9.230215v155.935245c0 12.313106 2.769064 14.768343 14.528357 10.448603a140.299261 140.299261 0 0 0 26.029205-12.553092q120.860429-74.764738 241.554715-149.843303a26.786083 26.786083 0 0 1 13.439192-3.821309q151.910871-0.332288 303.840202-0.184604c24.663133 0 48.20018-4.855093 69.097386-18.589652 33.357995-21.94945 53.055273-52.483 56.322769-92.782117 0.719957-8.953308 0.923021-17.961997 0.923021-26.933766q0.110763-176.500162 0-352.981864c0-29.425924-7.476474-56.470452-26.324571-79.767514-25.696917-31.770398-59.331819-46.391058-99.686317-46.391058H392.39488c-7.974905 0-15.672904-0.44305-22.152515-5.741193a28.133694 28.133694 0 0 1-9.710185-30.9766C363.670452 9.230215 374.174437 1.199928 386.561385 0.110763c2.067568-0.166144 4.153597 0 6.239625 0h476.168307c51.892266 0 96.548044 17.832774 132.564341 55.492049A168.414494 168.414494 0 0 1 1046.706328 142.662196a226.472544 226.472544 0 0 1 3.544402 39.17303c0.369209 56.064323 0.258446 112.128646 0 168.174509 0 6.793438 1.993726 8.676402 8.565639 8.325653 26.139968-1.384532 51.689201 1.550676 75.30009 13.660718 41.868253 21.432558 66.752911 55.381287 74.229386 101.95695a122.078817 122.078817 0 0 1 1.495294 19.235767c0 92.985181 0.313827 185.951902-0.332287 278.937083-0.221525 31.013521-12.091581 58.482639-32.508816 81.816621-28.632125 32.785722-65.220696 47.683288-108.510402 46.944872-12.553092-0.221525-12.553092 0-12.553092 12.331566 0 18.460429 0.258446 36.920858 0 55.381287-0.387669 21.414098-9.064071 38.231549-28.4106 48.772454-16.005192 8.713323-32.970326 8.454877-48.717072 1.439913-17.352803-7.73492-33.819506-17.722012-50.064684-27.690643-45.966468-28.244456-91.582189-57.061186-137.474815-85.397945a25.844601 25.844601 0 0 0-12.829998-3.692086c-67.583631-0.221525-135.185722-0.110763-202.787814-0.166144-53.996755 0-95.385037-22.81709-123.334126-69.245069-3.85823-6.239625-6.498071-13.180746-10.134776-20.786443z m556.268109 34.022571h73.490968c45.726483-0.110763 80.838219-33.671823 81.115126-79.379845q0.775338-135.96106 0-271.940581c-0.239986-33.690283-17.112818-58.150352-47.590987-72.71563-15.46984-7.384172-32.194988-6.922661-48.827834-7.033423-5.851956 0-7.384172 1.846043-7.384172 7.476473q0.332288 62.285488 0 124.552515a225.586443 225.586443 0 0 1-1.513755 27.579881c-7.014963 54.790553-34.447161 96.861871-80.339788 127.063133-29.979737 19.734199-63.22697 27.875248-98.947899 27.782946q-143.566757-0.332288-287.170435 0a23.813953 23.813953 0 0 0-11.685451 2.787525c-24.829277 15.082171-49.363187 30.607391-74.081702 45.837245-3.43364 2.122949-4.559726 3.968992-3.41518 8.288733 9.396358 35.167117 40.206814 59.534884 76.5554 59.608725 67.12212 0.129223 134.24424 0.793798 201.3479-0.406129 21.10027-0.387669 38.342311 4.984316 55.861258 16.282098 51.319993 33.099549 103.526086 64.833027 155.455273 97.009555 5.095078 3.156733 10.670128 5.538129 17.094357 8.916387zM846.909104 260.882783h-348.902109a28.613665 28.613665 0 1 1 0-57.22733h348.902109a28.613665 28.613665 0 0 1 0 57.22733zM846.909104 401.182044h-245.523706a28.613665 28.613665 0 0 1 0-57.22733h245.523706a28.613665 28.613665 0 0 1 0 57.22733z"/></svg>