<svg xmlns="http://www.w3.org/2000/svg" width="24" height="24" viewBox="0 0 1024 1024" fill="none"><path fill="#000000" fill-rule="evenodd" clip-rule="evenodd" d="M772.608 205.312H251.392c-12.8 0-25.6 12.8-25.6 25.6s12.8 25.6 25.6 25.6h521.216c12.8 0 25.6-12.8 25.6-25.6s-12.8-25.6-25.6-25.6zM772.608 517.12H251.392c-12.8 0-25.6 12.8-25.6 25.6s12.8 25.6 25.6 25.6h521.216c12.8 0 25.6-12.8 25.6-25.6s-12.8-25.6-25.6-25.6zM721.408 412.16c12.8 0 25.6-12.8 25.6-25.6s-12.8-25.6-25.6-25.6H302.592c-12.8 0-25.6 12.8-25.6 25.6s12.8 25.6 25.6 25.6h418.816zM832 30.208h-640c-88.576 0-160.256 71.68-160.256 160.256v448c0 88.576 71.68 160.256 160.256 160.256h148.48l89.088 148.48c8.192 13.312 19.456 24.576 32.768 32.768 45.568 27.136 104.448 12.8 131.584-32.768l89.6-148.992h148.48c88.576 0 160.256-71.68 160.256-160.256V189.952c0-88.064-71.68-159.744-160.256-159.744z m113.664 597.504c0 64-51.712 115.712-115.712 115.712h-176.64l-112.64 187.904c-3.072 4.608-6.656 8.704-11.264 11.264-15.872 9.216-36.352 4.096-45.568-11.264l-112.64-187.904H194.048c-64 0-115.712-51.712-115.712-115.712v-435.2C78.336 128.512 130.56 76.8 194.048 76.8H829.44c64 0 115.712 51.712 115.712 115.712v435.2z"/></svg>